#!OML:ASF \\Waltz\H\Terrain\Patient Classification 1\Animal2\Wednesday\Animal2.ASF
:FULLY-SPECIFIED
:DEGREES
3305
root 18.8481 15.9894 -1.04303 8.81514 3.66239 -4.6366
lowerback 10.3739 -2.7962 -2.9399
upperback -5.4141 -4.20039 0.266321
thorax -11.4733 -1.76753 2.77727
lowerneck 14.0704 16.9902 19.5615
upperneck -15.7316 23.3012 -33.1033
head -0.0431239 13.2385 -13.5788
rclavicle 8.8161e-014 3.89618e-014
rhumerus -5.95783 -22.6217 -7.80376
rradius 39.6244
rwrist 7.51071
rhand -2.57471 18.4946
rfingers 7.12502
rthumb 23.1221 -10.1379
lclavicle 8.8161e-014 3.89618e-014
lhumerus 5.10619 -42.7112 20.2894
lradius 70.6972
lwrist 76.0521
lhand -22.3937 30.2878
lfingers 7.12502
lthumb 4.02862 60.2295
rfemur -39.6528 -21.635 31.2446
rtibia 65.4795
rfoot -35.9087 -13.9975
rtoes 0.373542
lfemur -46.3424 34.2679 -21.1104
ltibia 69.6824
lfoot -32.0259 -0.529707
ltoes 1.97245
3306
root 18.8654 15.9526 -1.02921 8.76769 3.34931 -4.70479
lowerback 10.026 -2.74686 -2.77721
upperback -5.3189 -4.08365 0.370998
thorax -11.1657 -1.7305 2.75064
lowerneck 14.182 17.0133 19.5497
upperneck -15.666 23.3599 -33.1623
head -0.020405 13.2795 -13.5967
rclavicle -2.98922e-014 -1.51076e-014
rhumerus -6.0625 -21.9139 -8.28533
rradius 40.2818
rwrist 6.40884
rhand -5.05841 17.0239
rfingers 7.12502
rthumb 20.7373 -11.8881
lclavicle -2.98922e-014 -1.51076e-014
lhumerus 4.41499 -42.4088 21.3665
lradius 70.2584
lwrist 75.5557
lhand -22.5234 30.1799
lfingers 7.12502
lthumb 3.90339 60.1239
rfemur -39.842 -21.5324 31.1723
rtibia 66.0568
rfoot -36.1603 -13.79
rtoes 1.14508
lfemur -46.3775 34.4179 -21.001
ltibia 70.1312
lfoot -32.475 -0.569916
ltoes 1.57292
3307
root 18.8768 15.9104 -1.03181 8.92549 3.33337 -4.59182
lowerback 9.67403 -2.76403 -2.81022
upperback -5.30074 -4.08784 0.487398
thorax -10.9221 -1.7334 2.87147
lowerneck 14.3194 17.035 19.3828
upperneck -15.7058 23.3668 -33.1757
head -0.0736258 13.3032 -13.6011
rclavicle 7.15625e-015 1.27222e-014
rhumerus -6.22365 -21.0496 -8.66937
rradius 40.8332
rwrist 5.45665
rhand -8.11314 15.4967
rfingers 7.12502
rthumb 17.8 -13.7086
lclavicle 7.15625e-015 1.27222e-014
lhumerus 3.70642 -42.2549 22.5795
lradius 69.9643
lwrist 75.614
lhand -23.4447 30.1765
lfingers 7.12502
lthumb 3.01364 60.135
rfemur -40.3936 -21.7383 31.0993
rtibia 66.6505
rfoot -36.1439 -13.5289
rtoes 2.18622
lfemur -46.8129 34.3101 -21.2575
ltibia 70.5799
lfoot -32.7674 -0.205373
ltoes 0.217586
3308
root 18.8823 15.8771 -1.03878 9.04021 3.30305 -4.57694
lowerback 9.48754 -2.76502 -2.85816
upperback -5.28459 -4.07379 0.646388
thorax -10.7778 -1.72133 3.05381
lowerneck 14.1426 17.0459 19.2537
upperneck -15.4727 23.3786 -33.1495
head 0.000653578 13.2943 -13.5354
rclavicle 7.45443e-015 1.59028e-014
rhumerus -6.31256 -20.5387 -9.16863
rradius 41.1405
rwrist 4.92575
rhand -11.0291 14.3524
rfingers 7.12502
rthumb 14.9925 -15.0849
lclavicle 7.45443e-015 1.59028e-014
lhumerus 2.95624 -42.2514 23.7477
lradius 69.8592
lwrist 76.1839
lhand -24.6703 30.3353
lfingers 7.12502
lthumb 1.83002 60.3072
rfemur -40.8483 -21.8688 31.1553
rtibia 67.1191
rfoot -36.1881 -13.2557
rtoes 2.97036
lfemur -47.2172 34.2622 -21.3913
ltibia 70.9716
lfoot -32.7874 0.100025
ltoes -0.0733231
3309
root 18.8872 15.8484 -1.0435 9.07831 3.21874 -4.63933
lowerback 9.43117 -2.77446 -2.79945
upperback -5.29028 -4.06682 0.745511
thorax -10.7472 -1.71908 3.12301
lowerneck 13.8575 17.0398 19.5595
upperneck -14.9904 23.4924 -33.3199
head 0.281573 13.3166 -13.5392
rclavicle -3.83654e-014 -3.97569e-015
rhumerus -6.36807 -20.1825 -9.90178
rradius 41.2404
rwrist 4.86723
rhand -13.9471 13.6034
rfingers 7.12502
rthumb 12.1801 -16.022
lclavicle -3.83654e-014 -3.97569e-015
lhumerus 2.20715 -42.4163 24.7371
lradius 69.5855
lwrist 76.2369
lhand -25.0104 30.3933
lfingers 7.12502
lthumb 1.50157 60.3677
rfemur -41.1147 -21.9116 31.2526
rtibia 67.4658
rfoot -36.3314 -13.2113
rtoes 2.81748
lfemur -47.474 34.2845 -21.3889
ltibia 71.2899
lfoot -32.8477 -0.321286
ltoes 2.27634
